<svg height="15" viewBox="0 0 21 15" width="21" xmlns="http://www.w3.org/2000/svg" xmlns:xlink="http://www.w3.org/1999/xlink"><linearGradient id="a" x1="50%" x2="50%" y1="0%" y2="100%"><stop offset="0" stop-color="#fff"/><stop offset="1" stop-color="#f0f0f0"/></linearGradient><linearGradient id="b" x1="50%" x2="50%" y1="0%" y2="100%"><stop offset="0" stop-color="#ffa44a"/><stop offset="1" stop-color="#ff9934"/></linearGradient><linearGradient id="c" x1="50%" x2="50%" y1="0%" y2="100%"><stop offset="0" stop-color="#1a9f0b"/><stop offset="1" stop-color="#138806"/></linearGradient><g fill="none" fill-rule="evenodd"><path d="m0 0h21v15h-21z" fill="url(#a)"/><path d="m0 0h21v5h-21z" fill="url(#b)"/><path d="m0 10h21v5h-21z" fill="url(#c)"/><path d="m0 5h21v5h-21z" fill="url(#a)"/><g fill="#181a93"><circle cx="10.5" cy="7.5" fill-opacity=".15" r="1.5"/><path d="m10.5 9.5c-1.1045695 0-2-.8954305-2-2s.8954305-2 2-2 2 .8954305 2 2-.8954305 2-2 2zm0-.5c.8284271 0 1.5-.67157288 1.5-1.5s-.6715729-1.5-1.5-1.5c-.82842712 0-1.5.67157288-1.5 1.5s.67157288 1.5 1.5 1.5z" fill-rule="nonzero"/><circle cx="10.5" cy="7.5" r="1"/></g></g></svg>